<svg width="148" height="171" viewBox="0 0 148 171" fill="none" xmlns="http://www.w3.org/2000/svg">
<path d="M148 97.002C148 107.992 145.6 118.432 141.29 127.812C129.61 153.302 103.87 171.002 74 171.002C44.13 171.002 18.39 153.302 6.71 127.812C2.4 118.432 0 107.992 0 97.002C0 56.132 33.13 23.002 74 23.002C114.87 23.002 148 56.132 148 97.002Z" fill="#F0F1F2"/>
<mask id="mask0_175_6080" style="mask-type:alpha" maskUnits="userSpaceOnUse" x="0" y="0" width="148" height="172">
<path d="M148 40.5C148 51.49 145.6 118.43 141.29 127.81C129.61 153.3 103.87 171 74 171C44.13 171 18.39 153.3 6.71 127.81C2.4 118.43 0 51.49 0 40.5C0 -0.369999 33.13 0.000117124 74 0.000117124C114.87 0.000117124 148 -0.369999 148 40.5Z" fill="#F0F1F2"/>
</mask>
<g mask="url(#mask0_175_6080)">
<g filter="url(#filter0_d_175_6080)">
<path d="M17.8921 19.623C17.8921 18.726 18.6181 18 19.5151 18H128.269C129.166 18 129.892 18.726 129.892 19.623V169.826C129.892 170.723 129.166 171.449 128.269 171.449H19.5151C18.6181 171.449 17.8921 170.723 17.8921 169.826V19.623Z" fill="#5BA7B1"/>
<path d="M129.892 75.2754H17.8921V105.71H129.892V75.2754Z" fill="#7FBEC6"/>
<path d="M17.8921 105.71H129.892V169.826C129.892 170.723 129.166 171.449 128.269 171.449H19.5151C18.6181 171.449 17.8921 170.723 17.8921 169.826V105.71Z" fill="white"/>
<path d="M43.9857 75.1287H40.0007L37.9717 63.0117H41.9487L42.1277 64.0827L43.9857 75.1287Z" fill="white"/>
<path d="M106.741 105.851H103.2L100.795 91.5127H104.335L106.741 105.851Z" fill="#6D493C"/>
<path d="M72.4862 59.8274H41.4172L36.3672 29.7354H65.1902C66.4872 29.7354 67.5942 30.6724 67.8092 31.9514L72.4862 59.8274Z" fill="white"/>
<path d="M41.417 59.8274H37.437L32.907 32.8294C32.635 31.2104 33.883 29.7344 35.525 29.7344H36.367L41.417 59.8274Z" fill="white"/>
<path d="M112.681 63.0302L101.142 72.4852L101.584 75.1262H93.2287L108.011 63.0122H86.2197V59.8262H112.681V63.0302Z" fill="#6D493C"/>
<path d="M74.7053 94.1517L60.4273 105.851H55.7363L73.2323 91.5127H74.2603L74.7053 94.1517Z" fill="#6D493C"/>
<path d="M74.0492 69.1417L70.9371 71.6927L66.7462 75.1267H43.9841L41.9521 63.0127H73.0201L74.0492 69.1417Z" fill="white"/>
<path d="M86.2199 63.0132L74.6169 72.5222L80.2089 105.85H76.6689L71.5139 75.1262L71.5049 75.0712L71.4379 75.1262L33.9449 105.85H29.2539L81.5289 63.0122H32.6729V59.8262H86.2199V63.0132Z" fill="#AF5947"/>
<path d="M117.679 77.7839V91.5139H88.4932V75.1279H115.024C116.49 75.1279 117.679 76.3169 117.679 77.7839Z" fill="#D2D5D9"/>
<path d="M88.4927 75.1279V91.5129H77.8017L75.0527 75.1279H88.4927Z" fill="#D2D5D9"/>
<path d="M74.2609 91.5142H51.4419L71.5029 75.0732L74.2609 91.5142Z" fill="#D2D5D9"/>
<path d="M66.743 75.1299L46.729 91.5159H42.752L40.001 75.1299H66.743Z" fill="#D2D5D9"/>
<path d="M76.8921 117H30.8921C29.7871 117 28.8921 117.895 28.8921 119C28.8921 120.105 29.7871 121 30.8921 121H76.8921C77.9971 121 78.8921 120.105 78.8921 119C78.8921 117.895 77.9961 117 76.8921 117Z" fill="#D2D5D9"/>
<path d="M63.8921 132H33.8921C31.1311 132 28.8921 134.239 28.8921 137C28.8921 139.761 31.1311 142 33.8921 142H63.8921C66.6531 142 68.8921 139.761 68.8921 137C68.8921 134.239 66.6531 132 63.8921 132Z" fill="#00735C"/>
</g>
</g>
<defs>
<filter id="filter0_d_175_6080" x="7.89209" y="10" width="132" height="173.449" filterUnits="userSpaceOnUse" color-interpolation-filters="sRGB">
<feFlood flood-opacity="0" result="BackgroundImageFix"/>
<feColorMatrix in="SourceAlpha" type="matrix" values="0 0 0 0 0 0 0 0 0 0 0 0 0 0 0 0 0 0 127 0" result="hardAlpha"/>
<feOffset dy="2"/>
<feGaussianBlur stdDeviation="5"/>
<feColorMatrix type="matrix" values="0 0 0 0 0 0 0 0 0 0 0 0 0 0 0 0 0 0 0.3 0"/>
<feBlend mode="normal" in2="BackgroundImageFix" result="effect1_dropShadow_175_6080"/>
<feBlend mode="normal" in="SourceGraphic" in2="effect1_dropShadow_175_6080" result="shape"/>
</filter>
</defs>
</svg>
